TITLE ""
FILE "DISC1Track21.mp3" MP3
  TRACK 01 AUDIO
    TITLE "DISC1Track21_01"
    INDEX 01 00:00:00
  TRACK 02 AUDIO
    TITLE "DISC1Track21_02"
    INDEX 01 00:01:39
  TRACK 03 AUDIO
    TITLE "DISC1Track21_03"
    INDEX 01 00:01:49
  TRACK 04 AUDIO
    TITLE "DISC1Track21_04"
    INDEX 01 00:04:36
  TRACK 05 AUDIO
    TITLE "DISC1Track21_05"
    INDEX 01 00:07:12
  TRACK 06 AUDIO
    TITLE "DISC1Track21_06"
    INDEX 01 00:09:43
  TRACK 07 AUDIO
    TITLE "DISC1Track21_07"
    INDEX 01 00:09:52
  TRACK 08 AUDIO
    TITLE "DISC1Track21_08"
    INDEX 01 00:14:12
  TRACK 09 AUDIO
    TITLE "DISC1Track21_09"
    INDEX 01 00:18:02
  TRACK 10 AUDIO
    TITLE "DISC1Track21_10"
    INDEX 01 00:21:44
  TRACK 11 AUDIO
    TITLE "DISC1Track21_11"
    INDEX 01 00:21:58
  TRACK 12 AUDIO
    TITLE "DISC1Track21_12"
    INDEX 01 00:24:46
  TRACK 13 AUDIO
    TITLE "DISC1Track21_13"
    INDEX 01 00:27:03
  TRACK 14 AUDIO
    TITLE "DISC1Track21_14"
    INDEX 01 00:28:75
  TRACK 15 AUDIO
    TITLE "DISC1Track21_15"
    INDEX 01 00:29:18
  TRACK 16 AUDIO
    TITLE "DISC1Track21_16"
    INDEX 01 00:32:01
  TRACK 17 AUDIO
    TITLE "DISC1Track21_17"
    INDEX 01 00:34:29
  TRACK 18 AUDIO
    TITLE "DISC1Track21_18"
    INDEX 01 00:36:37
  TRACK 19 AUDIO
    TITLE "DISC1Track21_19"
    INDEX 01 00:36:53
  TRACK 20 AUDIO
    TITLE "DISC1Track21_20"
    INDEX 01 00:38:44
  TRACK 21 AUDIO
    TITLE "DISC1Track21_21"
    INDEX 01 00:40:55
  TRACK 22 AUDIO
    TITLE "DISC1Track21_22"
    INDEX 01 00:42:40
  TRACK 23 AUDIO
    TITLE "DISC1Track21_23"
    INDEX 01 00:42:56
  TRACK 24 AUDIO
    TITLE "DISC1Track21_24"
    INDEX 01 00:45:52
  TRACK 25 AUDIO
    TITLE "DISC1Track21_25"
    INDEX 01 00:49:11
  TRACK 26 AUDIO
    TITLE "DISC1Track21_26"
    INDEX 01 00:52:09
  TRACK 27 AUDIO
    TITLE "DISC1Track21_27"
    INDEX 01 00:52:21
  TRACK 28 AUDIO
    TITLE "DISC1Track21_28"
    INDEX 01 00:55:51
  TRACK 29 AUDIO
    TITLE "DISC1Track21_29"
    INDEX 01 00:59:48
  TRACK 30 AUDIO
    TITLE "DISC1Track21_30"
    INDEX 01 01:03:01
  TRACK 31 AUDIO
    TITLE "DISC1Track21_31"
    INDEX 01 01:03:25
  TRACK 32 AUDIO
    TITLE "DISC1Track21_32"
    INDEX 01 01:07:18
  TRACK 33 AUDIO
    TITLE "DISC1Track21_33"
    INDEX 01 01:11:40
  TRACK 34 AUDIO
    TITLE "DISC1Track21_34"
    INDEX 01 01:15:28
  TRACK 35 AUDIO
    TITLE "DISC1Track21_35"
    INDEX 01 01:15:43
  TRACK 36 AUDIO
    TITLE "DISC1Track21_36"
    INDEX 01 01:19:43
  TRACK 37 AUDIO
    TITLE "DISC1Track21_37"
    INDEX 01 01:23:59
  TRACK 38 AUDIO
    TITLE "DISC1Track21_38"
    INDEX 01 01:27:39
  TRACK 39 AUDIO
    TITLE "DISC1Track21_39"
    INDEX 01 01:27:52
  TRACK 40 AUDIO
    TITLE "DISC1Track21_40"
    INDEX 01 01:30:41
  TRACK 41 AUDIO
    TITLE "DISC1Track21_41"
    INDEX 01 01:33:47
  TRACK 42 AUDIO
    TITLE "DISC1Track21_42"
    INDEX 01 01:36:34
  TRACK 43 AUDIO
    TITLE "DISC1Track21_43"
    INDEX 01 01:36:51
  TRACK 44 AUDIO
    TITLE "DISC1Track21_44"
    INDEX 01 01:38:17
  TRACK 45 AUDIO
    TITLE "DISC1Track21_45"
    INDEX 01 01:40:30
  TRACK 46 AUDIO
    TITLE "DISC1Track21_46"
    INDEX 01 01:42:19
  TRACK 47 AUDIO
    TITLE "DISC1Track21_47"
    INDEX 01 01:42:36
  TRACK 48 AUDIO
    TITLE "DISC1Track21_48"
    INDEX 01 01:46:20
  TRACK 49 AUDIO
    TITLE "DISC1Track21_49"
    INDEX 01 01:50:52
  TRACK 50 AUDIO
    TITLE "DISC1Track21_50"
    INDEX 01 01:54:45
